<?xml version="1.0" encoding="utf-8"?>
<!-- Generator: Adobe Illustrator 18.0.0, SVG Export Plug-In . SVG Version: 6.00 Build 0)  -->
<!DOCTYPE svg PUBLIC "-//W3C//DTD SVG 1.1//EN" "http://www.w3.org/Graphics/SVG/1.1/DTD/svg11.dtd">
<svg version="1.1" xmlns="http://www.w3.org/2000/svg" xmlns:xlink="http://www.w3.org/1999/xlink" x="0px" y="0px" width="595.3px"
	 height="595.3px" viewBox="123.3 0 595.3 595.3" enable-background="new 123.3 0 595.3 595.3" xml:space="preserve">
<g id="Layer_2">
	<path fill="#009CC1" d="M633.5,595.3H208.3c-46.8,0-85-38.3-85-85V85c0-46.8,38.3-85,85-85h425.2c46.8,0,85,38.3,85,85v425.2
		C718.6,557,680.3,595.3,633.5,595.3z"/>
</g>
<g id="Layer_1">
	<g>
		<path fill="#FFFFFF" d="M516.7,554.2C432.8,532.9,360,478.3,360,389.9V200.3h-57.6v-66.7H360V41.1h85.4v92.5h80.9v66.7h-80.9
			v196.1c0,49,36.4,70.3,94,83.9L516.7,554.2z"/>
	</g>
</g>
</svg>
