<?xml version="1.0" encoding="utf-8"?>
<!-- Generator: Adobe Illustrator 18.0.0, SVG Export Plug-In . SVG Version: 6.00 Build 0)  -->
<!DOCTYPE svg PUBLIC "-//W3C//DTD SVG 1.1//EN" "http://www.w3.org/Graphics/SVG/1.1/DTD/svg11.dtd">
<svg version="1.1" id="Layer_1" xmlns="http://www.w3.org/2000/svg" xmlns:xlink="http://www.w3.org/1999/xlink" x="0px" y="0px"
	 viewBox="0 0 442.8 119.4" enable-background="new 0 0 442.8 119.4" xml:space="preserve">
<g>
	<path fill="#009CC1" d="M29,77.3C17.6,74.4,7.8,67.1,7.8,55.1V29.4H0v-9h7.8V7.9h11.6v12.5h11v9h-11V56c0,6.7,4.9,9.5,12.7,11.4
		L29,77.3z"/>
	<path fill="#009CC1" d="M49.6,48.4c0.9,7.5,4.8,11.7,11.3,11.7c4.4,0,9.7-1.5,14.7-4l3.8,8.9c-5.6,2.6-12.8,3.7-19.3,3.7
		c-15.2,0-22.7-11.3-22.7-24.3c0-10.9,4.9-25.2,22.2-25.2c16.3,0,22.1,9.6,22.1,29.2H49.6z M59.6,28.1c-3.8,0-9.5,2.3-9.9,12h21
		C70.1,31.2,65.6,28.1,59.6,28.1z"/>
	<path fill="#009CC1" d="M119.7,67.4l-10-15.6L98.9,67.4H86.7l16.9-23.7L87.9,20.5h13l9.2,14.7l9.6-14.7h12.1l-16,22.5l16.8,24.4
		H119.7z"/>
	<path fill="#009CC1" d="M167.4,77.3c-11.4-2.9-21.2-10.3-21.2-22.2V29.4h-7.8v-9h7.8V7.9h11.6v12.5h11v9h-11V56
		c0,6.7,4.9,9.5,12.7,11.4L167.4,77.3z"/>
	<path fill="#009CC1" d="M208.8,67.4l-17-23.5v23.5h-11.6V0h11.6v39l15.4-18.5h12.5l-17,20.3l19.5,26.6H208.8z"/>
	<path fill="#009CC1" d="M240,48.4c0.9,7.5,4.8,11.7,11.3,11.7c4.4,0,9.7-1.5,14.7-4l3.8,8.9c-5.6,2.6-12.8,3.7-19.3,3.7
		c-15.2,0-22.7-11.3-22.7-24.3c0-10.9,4.9-25.2,22.3-25.2c16.3,0,22.1,9.6,22.1,29.2H240z M250,28.1c-3.8,0-9.5,2.3-9.9,12h21
		C260.5,31.2,256,28.1,250,28.1z"/>
	<path fill="#009CC1" d="M311.5,30.9c-1.7-1.3-4.2-2.9-6.8-2.9c-5.4,0-8.4,8.6-9.5,11.4v28h-11.6V31c0-4.6-0.9-8.1-1.2-10.5H293
		l1.8,8c1.6-3,6.7-9.4,11.7-9.4c3.9,0,6.2,0.8,8.9,2.3L311.5,30.9z"/>
	<path fill="#009CC1" d="M352.7,67.4v-30c0-4.6-0.4-9.3-7.3-9.3c-4.8,0-8.1,4.4-10.3,8.8v30.6h-11.6V30.5c0-3.9-0.8-6.7-1.2-9.9H333
		l1.8,6.2c1.9-2.1,5.9-7.6,12.5-7.6c13.7,0,16.9,8,16.9,18.8v29.5H352.7z"/>
	<path fill="#009CC1" d="M387.7,48.4c0.9,7.5,4.8,11.7,11.3,11.7c4.4,0,9.7-1.5,14.7-4l3.8,8.9c-5.6,2.6-12.8,3.7-19.3,3.7
		c-15.2,0-22.7-11.3-22.7-24.3c0-10.9,4.9-25.2,22.3-25.2c16.3,0,22.1,9.6,22.1,29.2H387.7z M397.6,28.1c-3.8,0-9.5,2.3-9.9,12h21
		C408.2,31.2,403.7,28.1,397.6,28.1z"/>
	<path fill="#009CC1" d="M431.2,67.4V0h11.6v67.4H431.2z"/>
</g>
<g>
	<path fill="#182642" d="M7.3,114.4v-17h2.5l5.6,15h0l5.5-15h2.4v17h-1.6V99.2h0l-5.6,15.2h-1.5L9,99.2h0v15.2H7.3z"/>
	<path fill="#182642" d="M32.5,107.2c0.3,0,0.6-0.1,1-0.1c0.4-0.1,0.7-0.1,0.9-0.3c0.2-0.1,0.4-0.3,0.4-0.6c0.1-0.3,0.1-0.5,0.1-0.7
		c0-0.7-0.2-1.3-0.7-1.8c-0.5-0.5-1.2-0.7-2.3-0.7c-0.5,0-0.9,0-1.3,0.1c-0.4,0.1-0.8,0.2-1.1,0.4c-0.3,0.2-0.6,0.5-0.8,0.8
		c-0.2,0.4-0.3,0.8-0.4,1.3h-1.4c0-0.7,0.2-1.3,0.5-1.9c0.3-0.5,0.6-0.9,1.1-1.3c0.4-0.3,1-0.6,1.6-0.7c0.6-0.1,1.2-0.2,1.9-0.2
		c0.6,0,1.2,0.1,1.7,0.2c0.5,0.1,1,0.3,1.4,0.6c0.4,0.3,0.7,0.7,0.9,1.2c0.2,0.5,0.3,1.1,0.3,1.8v6.7c0,0.6,0.1,0.9,0.3,1.1
		c0.2,0.1,0.6,0.1,1.2-0.1v1.1c-0.1,0-0.3,0.1-0.5,0.1c-0.2,0.1-0.4,0.1-0.6,0.1c-0.2,0-0.4,0-0.6-0.1c-0.2,0-0.4-0.1-0.6-0.2
		s-0.3-0.3-0.3-0.4s-0.1-0.3-0.2-0.5c0-0.2,0-0.4,0-0.6c-0.6,0.7-1.3,1.2-2.1,1.5c-0.8,0.3-1.6,0.5-2.5,0.5c-0.5,0-1.1-0.1-1.5-0.2
		s-0.9-0.4-1.3-0.7c-0.4-0.3-0.7-0.7-0.9-1.1c-0.2-0.4-0.3-0.9-0.3-1.5c0-2.1,1.4-3.3,4.3-3.7L32.5,107.2z M34.8,107.9
		c-0.6,0.3-1.2,0.4-1.8,0.5c-0.6,0.1-1.2,0.1-1.8,0.2c-1.1,0.1-1.9,0.3-2.5,0.7s-0.9,1-0.9,1.9c0,0.4,0.1,0.7,0.2,1
		c0.1,0.3,0.3,0.5,0.6,0.7c0.2,0.2,0.5,0.3,0.8,0.4c0.3,0.1,0.6,0.1,1,0.1c0.6,0,1.1-0.1,1.7-0.2c0.5-0.1,1-0.4,1.4-0.6
		c0.4-0.3,0.8-0.7,1-1.1c0.3-0.4,0.4-1,0.4-1.6V107.9z"/>
	<path fill="#182642" d="M48.6,106c-0.3-0.9-0.7-1.6-1.3-2.1c-0.6-0.5-1.4-0.8-2.3-0.8c-0.7,0-1.3,0.2-1.9,0.4
		c-0.5,0.3-0.9,0.7-1.3,1.2c-0.3,0.5-0.6,1.1-0.7,1.7s-0.2,1.2-0.2,1.9c0,0.6,0.1,1.3,0.2,1.9c0.1,0.6,0.4,1.2,0.7,1.7
		c0.3,0.5,0.8,0.9,1.3,1.2c0.5,0.3,1.1,0.4,1.9,0.4c1.1,0,1.9-0.3,2.5-0.9s1-1.4,1.2-2.4h1.5c-0.1,0.7-0.3,1.3-0.6,1.9
		c-0.3,0.6-0.6,1-1.1,1.4c-0.4,0.4-0.9,0.7-1.5,0.9c-0.6,0.2-1.3,0.3-2.1,0.3c-1,0-1.8-0.2-2.5-0.5s-1.3-0.8-1.7-1.4
		c-0.5-0.6-0.8-1.3-1-2s-0.3-1.6-0.3-2.5c0-0.8,0.1-1.7,0.4-2.4c0.2-0.8,0.6-1.5,1.1-2.1c0.5-0.6,1.1-1.1,1.8-1.4
		c0.7-0.4,1.5-0.5,2.4-0.5c1.4,0,2.6,0.3,3.4,1c0.9,0.7,1.4,1.7,1.6,3.2H48.6z"/>
	<path fill="#182642" d="M53.1,114.4v-17h1.4v6.5c0.6-0.6,1.2-1.1,1.8-1.5c0.6-0.4,1.3-0.6,2.2-0.6c0.8,0,1.5,0.1,2.1,0.4
		s1.2,0.7,1.6,1.4c0.3,0.4,0.5,0.9,0.5,1.4c0.1,0.5,0.1,0.9,0.1,1.5v8h-1.4v-8c0-1.1-0.2-1.9-0.7-2.5c-0.5-0.5-1.3-0.8-2.4-0.8
		c-0.4,0-0.8,0.1-1.2,0.2s-0.7,0.3-1,0.5c-0.3,0.2-0.5,0.5-0.7,0.8c-0.2,0.3-0.4,0.6-0.5,0.9c-0.1,0.4-0.2,0.8-0.3,1.1
		c0,0.4,0,0.8,0,1.2v6.6H53.1z"/>
	<path fill="#182642" d="M66.3,99.5v-2.1h1.6v2.1H66.3z M66.4,114.4v-12.2h1.4v12.2H66.4z"/>
	<path fill="#182642" d="M72.9,114.4h-1.4v-12.2h1.4v1.7c0.6-0.6,1.2-1.1,1.8-1.5c0.6-0.4,1.3-0.6,2.2-0.6c0.8,0,1.5,0.1,2.1,0.4
		s1.2,0.7,1.6,1.4c0.3,0.4,0.5,0.9,0.5,1.4c0.1,0.5,0.1,0.9,0.1,1.5v8h-1.4v-8c0-1.1-0.2-1.9-0.7-2.5c-0.5-0.5-1.3-0.8-2.4-0.8
		c-0.4,0-0.8,0.1-1.2,0.2s-0.7,0.3-1,0.5c-0.3,0.2-0.5,0.5-0.7,0.8c-0.2,0.3-0.4,0.6-0.5,0.9c-0.1,0.4-0.2,0.8-0.3,1.1
		c0,0.4,0,0.8,0,1.2V114.4z"/>
	<path fill="#182642" d="M85.4,108.6c0,0.7,0.1,1.3,0.3,1.9c0.2,0.6,0.4,1.1,0.8,1.5c0.3,0.4,0.8,0.8,1.3,1c0.5,0.3,1.1,0.4,1.8,0.4
		c0.9,0,1.7-0.2,2.4-0.7c0.7-0.5,1.1-1.2,1.3-2.1h1.6c-0.2,0.6-0.4,1.1-0.7,1.6c-0.3,0.5-0.6,0.9-1.1,1.3c-0.4,0.4-0.9,0.7-1.5,0.9
		c-0.6,0.2-1.3,0.3-2,0.3c-1,0-1.8-0.2-2.5-0.5s-1.3-0.8-1.7-1.4c-0.5-0.6-0.8-1.3-1-2c-0.2-0.8-0.3-1.6-0.3-2.5
		c0-0.9,0.1-1.7,0.4-2.5c0.3-0.8,0.6-1.5,1.1-2.1s1.1-1.1,1.8-1.4c0.7-0.3,1.5-0.5,2.4-0.5c1.7,0,3,0.6,4,1.7c1,1.2,1.4,2.8,1.4,5
		H85.4z M93.4,107.4c0-0.6-0.1-1.2-0.2-1.7c-0.2-0.5-0.4-1-0.7-1.4c-0.3-0.4-0.7-0.7-1.2-0.9c-0.5-0.2-1-0.3-1.7-0.3
		s-1.2,0.1-1.7,0.4c-0.5,0.2-0.9,0.6-1.2,0.9s-0.6,0.8-0.8,1.4c-0.2,0.5-0.3,1.1-0.4,1.7H93.4z"/>
	<path fill="#182642" d="M105,114.4v-17h1.6v17H105z"/>
	<path fill="#182642" d="M112.2,114.4h-1.4v-12.2h1.4v1.7c0.6-0.6,1.2-1.1,1.8-1.5c0.6-0.4,1.3-0.6,2.2-0.6c0.8,0,1.5,0.1,2.1,0.4
		s1.2,0.7,1.6,1.4c0.3,0.4,0.5,0.9,0.5,1.4c0.1,0.5,0.1,0.9,0.1,1.5v8h-1.4v-8c0-1.1-0.2-1.9-0.7-2.5c-0.5-0.5-1.3-0.8-2.4-0.8
		c-0.4,0-0.8,0.1-1.2,0.2s-0.7,0.3-1,0.5c-0.3,0.2-0.5,0.5-0.7,0.8c-0.2,0.3-0.4,0.6-0.5,0.9c-0.1,0.4-0.2,0.8-0.3,1.1
		c0,0.4,0,0.8,0,1.2V114.4z"/>
	<path fill="#182642" d="M128.2,114.4c-0.2,0-0.4,0.1-0.7,0.2c-0.3,0.1-0.6,0.1-0.9,0.1c-0.7,0-1.2-0.2-1.6-0.5
		c-0.4-0.4-0.6-1-0.6-1.9v-8.9h-1.7v-1.2h1.7v-3.4h1.4v3.4h2.3v1.2h-2.3v8.4c0,0.3,0,0.6,0,0.8c0,0.2,0.1,0.4,0.1,0.5
		s0.2,0.2,0.4,0.3c0.2,0.1,0.4,0.1,0.7,0.1c0.2,0,0.4,0,0.6,0s0.4-0.1,0.6-0.1V114.4z"/>
	<path fill="#182642" d="M131.4,108.6c0,0.7,0.1,1.3,0.3,1.9c0.2,0.6,0.4,1.1,0.8,1.5c0.3,0.4,0.8,0.8,1.3,1
		c0.5,0.3,1.1,0.4,1.8,0.4c0.9,0,1.7-0.2,2.4-0.7c0.7-0.5,1.1-1.2,1.3-2.1h1.6c-0.2,0.6-0.4,1.1-0.7,1.6c-0.3,0.5-0.6,0.9-1.1,1.3
		c-0.4,0.4-0.9,0.7-1.5,0.9c-0.6,0.2-1.3,0.3-2,0.3c-1,0-1.8-0.2-2.5-0.5s-1.3-0.8-1.7-1.4c-0.5-0.6-0.8-1.3-1-2
		c-0.2-0.8-0.3-1.6-0.3-2.5c0-0.9,0.1-1.7,0.4-2.5c0.3-0.8,0.6-1.5,1.1-2.1s1.1-1.1,1.8-1.4c0.7-0.3,1.5-0.5,2.4-0.5
		c1.7,0,3,0.6,4,1.7c1,1.2,1.4,2.8,1.4,5H131.4z M139.3,107.4c0-0.6-0.1-1.2-0.2-1.7c-0.2-0.5-0.4-1-0.7-1.4
		c-0.3-0.4-0.7-0.7-1.2-0.9c-0.5-0.2-1-0.3-1.7-0.3s-1.2,0.1-1.7,0.4c-0.5,0.2-0.9,0.6-1.2,0.9s-0.6,0.8-0.8,1.4
		c-0.2,0.5-0.3,1.1-0.4,1.7H139.3z"/>
	<path fill="#182642" d="M143.8,114.4v-17h1.4v17H143.8z"/>
	<path fill="#182642" d="M149.1,114.4v-17h1.4v17H149.1z"/>
	<path fill="#182642" d="M154.2,99.5v-2.1h1.6v2.1H154.2z M154.3,114.4v-12.2h1.4v12.2H154.3z"/>
	<path fill="#182642" d="M168.8,102.1h1.4v11c0,0.8-0.1,1.6-0.2,2.3c-0.2,0.7-0.5,1.4-0.9,2s-1,1-1.7,1.4c-0.7,0.3-1.7,0.5-2.9,0.5
		c-0.9,0-1.7-0.1-2.3-0.3c-0.6-0.2-1.2-0.5-1.6-0.9c-0.4-0.3-0.7-0.7-0.9-1.1c-0.2-0.4-0.3-0.8-0.3-1.2h1.5c0.1,0.5,0.3,0.8,0.5,1.1
		s0.5,0.5,0.8,0.7c0.3,0.2,0.7,0.3,1.1,0.3c0.4,0.1,0.8,0.1,1.2,0.1c1,0,1.7-0.2,2.3-0.5c0.6-0.3,1-0.8,1.3-1.3
		c0.3-0.5,0.5-1.1,0.6-1.8c0.1-0.7,0.1-1.4,0.1-2.1c-0.5,0.8-1.1,1.3-1.9,1.7c-0.8,0.4-1.6,0.6-2.5,0.6c-0.9,0-1.7-0.2-2.4-0.5
		c-0.7-0.4-1.3-0.8-1.7-1.4c-0.4-0.6-0.8-1.3-1-2.1c-0.2-0.8-0.3-1.6-0.3-2.5c0-0.9,0.1-1.7,0.3-2.5c0.2-0.8,0.5-1.5,1-2
		c0.4-0.6,1-1,1.7-1.4c0.7-0.3,1.5-0.5,2.5-0.5c0.4,0,0.8,0.1,1.2,0.2s0.8,0.3,1.2,0.5c0.4,0.2,0.7,0.5,1.1,0.8
		c0.3,0.3,0.6,0.7,0.8,1.1h0V102.1z M168.8,108.3c0-0.7-0.1-1.4-0.3-2.1c-0.2-0.6-0.4-1.2-0.8-1.7c-0.3-0.5-0.8-0.8-1.3-1.1
		c-0.5-0.3-1.1-0.4-1.8-0.4c-0.6,0-1.1,0.1-1.7,0.3c-0.5,0.2-0.9,0.5-1.3,0.9c-0.4,0.4-0.7,0.9-0.9,1.5s-0.3,1.3-0.3,2
		c0,0.8,0,1.5,0.2,2.2c0.2,0.7,0.4,1.3,0.8,1.8s0.8,0.9,1.3,1.2c0.5,0.3,1.2,0.4,1.9,0.4c0.6,0,1.2-0.1,1.7-0.4
		c0.5-0.3,0.9-0.6,1.3-1.1s0.6-1,0.8-1.6C168.7,109.6,168.8,109,168.8,108.3z"/>
	<path fill="#182642" d="M174.6,108.6c0,0.7,0.1,1.3,0.3,1.9c0.2,0.6,0.4,1.1,0.8,1.5c0.3,0.4,0.8,0.8,1.3,1
		c0.5,0.3,1.1,0.4,1.8,0.4c0.9,0,1.7-0.2,2.4-0.7c0.7-0.5,1.1-1.2,1.3-2.1h1.6c-0.2,0.6-0.4,1.1-0.7,1.6c-0.3,0.5-0.6,0.9-1.1,1.3
		c-0.4,0.4-0.9,0.7-1.5,0.9c-0.6,0.2-1.3,0.3-2,0.3c-1,0-1.8-0.2-2.5-0.5s-1.3-0.8-1.7-1.4c-0.5-0.6-0.8-1.3-1-2
		c-0.2-0.8-0.3-1.6-0.3-2.5c0-0.9,0.1-1.7,0.4-2.5c0.3-0.8,0.6-1.5,1.1-2.1s1.1-1.1,1.8-1.4c0.7-0.3,1.5-0.5,2.4-0.5
		c1.7,0,3,0.6,4,1.7c1,1.2,1.4,2.8,1.4,5H174.6z M182.6,107.4c0-0.6-0.1-1.2-0.2-1.7c-0.2-0.5-0.4-1-0.7-1.4
		c-0.3-0.4-0.7-0.7-1.2-0.9c-0.5-0.2-1-0.3-1.7-0.3s-1.2,0.1-1.7,0.4c-0.5,0.2-0.9,0.6-1.2,0.9s-0.6,0.8-0.8,1.4
		c-0.2,0.5-0.3,1.1-0.4,1.7H182.6z"/>
	<path fill="#182642" d="M188.3,114.4h-1.4v-12.2h1.4v1.7c0.6-0.6,1.2-1.1,1.8-1.5c0.6-0.4,1.3-0.6,2.2-0.6c0.8,0,1.5,0.1,2.1,0.4
		s1.2,0.7,1.6,1.4c0.3,0.4,0.5,0.9,0.5,1.4c0.1,0.5,0.1,0.9,0.1,1.5v8h-1.4v-8c0-1.1-0.2-1.9-0.7-2.5c-0.5-0.5-1.3-0.8-2.4-0.8
		c-0.4,0-0.8,0.1-1.2,0.2s-0.7,0.3-1,0.5c-0.3,0.2-0.5,0.5-0.7,0.8c-0.2,0.3-0.4,0.6-0.5,0.9c-0.1,0.4-0.2,0.8-0.3,1.1
		c0,0.4,0,0.8,0,1.2V114.4z"/>
	<path fill="#182642" d="M208.7,106c-0.3-0.9-0.7-1.6-1.3-2.1c-0.6-0.5-1.4-0.8-2.3-0.8c-0.7,0-1.3,0.2-1.9,0.4
		c-0.5,0.3-0.9,0.7-1.3,1.2c-0.3,0.5-0.6,1.1-0.7,1.7s-0.2,1.2-0.2,1.9c0,0.6,0.1,1.3,0.2,1.9c0.1,0.6,0.4,1.2,0.7,1.7
		c0.3,0.5,0.8,0.9,1.3,1.2c0.5,0.3,1.1,0.4,1.9,0.4c1.1,0,1.9-0.3,2.5-0.9s1-1.4,1.2-2.4h1.5c-0.1,0.7-0.3,1.3-0.6,1.9
		c-0.3,0.6-0.6,1-1.1,1.4c-0.4,0.4-0.9,0.7-1.5,0.9c-0.6,0.2-1.3,0.3-2.1,0.3c-1,0-1.8-0.2-2.5-0.5s-1.3-0.8-1.7-1.4
		c-0.5-0.6-0.8-1.3-1-2s-0.3-1.6-0.3-2.5c0-0.8,0.1-1.7,0.4-2.4c0.2-0.8,0.6-1.5,1.1-2.1c0.5-0.6,1.1-1.1,1.8-1.4
		c0.7-0.4,1.5-0.5,2.4-0.5c1.4,0,2.6,0.3,3.4,1c0.9,0.7,1.4,1.7,1.6,3.2H208.7z"/>
	<path fill="#182642" d="M214,108.6c0,0.7,0.1,1.3,0.3,1.9c0.2,0.6,0.4,1.1,0.8,1.5c0.3,0.4,0.8,0.8,1.3,1c0.5,0.3,1.1,0.4,1.8,0.4
		c0.9,0,1.7-0.2,2.4-0.7c0.7-0.5,1.1-1.2,1.3-2.1h1.6c-0.2,0.6-0.4,1.1-0.7,1.6c-0.3,0.5-0.6,0.9-1.1,1.3c-0.4,0.4-0.9,0.7-1.5,0.9
		c-0.6,0.2-1.3,0.3-2,0.3c-1,0-1.8-0.2-2.5-0.5s-1.3-0.8-1.7-1.4c-0.5-0.6-0.8-1.3-1-2c-0.2-0.8-0.3-1.6-0.3-2.5
		c0-0.9,0.1-1.7,0.4-2.5c0.3-0.8,0.6-1.5,1.1-2.1s1.1-1.1,1.8-1.4c0.7-0.3,1.5-0.5,2.4-0.5c1.7,0,3,0.6,4,1.7c1,1.2,1.4,2.8,1.4,5
		H214z M222,107.4c0-0.6-0.1-1.2-0.2-1.7c-0.2-0.5-0.4-1-0.7-1.4c-0.3-0.4-0.7-0.7-1.2-0.9c-0.5-0.2-1-0.3-1.7-0.3s-1.2,0.1-1.7,0.4
		c-0.5,0.2-0.9,0.6-1.2,0.9s-0.6,0.8-0.8,1.4c-0.2,0.5-0.3,1.1-0.4,1.7H222z"/>
	<path fill="#182642" d="M231.6,103.3v-1.2h1.8v-1.9c0-1,0.2-1.7,0.6-2.3s1.1-0.8,2-0.8c0.2,0,0.4,0,0.6,0c0.2,0,0.4,0,0.6,0.1v1.3
		c-0.3-0.1-0.6-0.1-0.8-0.1c-0.4,0-0.6,0.1-0.8,0.2c-0.2,0.1-0.4,0.3-0.4,0.5c-0.1,0.2-0.2,0.5-0.2,0.7c0,0.3,0,0.6,0,0.8v1.5h2.4
		v1.2h-2.4v11h-1.4v-11H231.6z"/>
	<path fill="#182642" d="M244.2,114.7c-0.8,0-1.5-0.2-2.2-0.4c-0.7-0.3-1.3-0.7-1.8-1.2c-0.5-0.5-0.9-1.2-1.2-2
		c-0.3-0.8-0.4-1.7-0.4-2.8c0-0.9,0.1-1.7,0.4-2.5c0.2-0.8,0.6-1.5,1.1-2c0.5-0.6,1.1-1,1.8-1.4c0.7-0.3,1.5-0.5,2.5-0.5
		c1,0,1.8,0.2,2.5,0.5c0.7,0.3,1.3,0.8,1.8,1.4c0.5,0.6,0.8,1.3,1.1,2c0.2,0.8,0.3,1.6,0.3,2.5c0,1-0.1,1.9-0.4,2.6
		c-0.3,0.8-0.6,1.5-1.1,2c-0.5,0.6-1.1,1-1.8,1.3C245.8,114.5,245.1,114.7,244.2,114.7z M248.4,108.2c0-0.7-0.1-1.4-0.2-2
		c-0.2-0.6-0.4-1.2-0.7-1.6c-0.3-0.5-0.8-0.8-1.3-1.1c-0.5-0.3-1.2-0.4-1.9-0.4c-0.7,0-1.4,0.1-1.9,0.4c-0.5,0.3-1,0.7-1.3,1.2
		c-0.3,0.5-0.6,1-0.7,1.7c-0.2,0.6-0.2,1.3-0.2,1.9c0,0.8,0.1,1.5,0.3,2.1c0.2,0.6,0.4,1.2,0.8,1.6c0.3,0.5,0.8,0.8,1.3,1.1
		c0.5,0.3,1.1,0.4,1.8,0.4c0.7,0,1.4-0.1,1.9-0.4c0.5-0.3,1-0.7,1.3-1.2c0.3-0.5,0.6-1,0.7-1.7C248.3,109.5,248.4,108.9,248.4,108.2
		z"/>
	<path fill="#182642" d="M254,114.4h-1.4v-12.2h1.4v2.3h0c0.4-1,0.9-1.7,1.5-2c0.6-0.4,1.4-0.6,2.5-0.6v1.5c-0.8,0-1.5,0.1-2,0.4
		c-0.5,0.3-0.9,0.6-1.2,1.1s-0.5,1-0.6,1.6c-0.1,0.6-0.2,1.3-0.2,1.9V114.4z"/>
	<path fill="#182642" d="M267,114.4v-17h6.2c1.1,0,2,0.1,2.7,0.4c0.7,0.3,1.3,0.6,1.7,1c0.4,0.4,0.7,0.9,0.9,1.5s0.2,1.2,0.2,1.8
		c0,0.9-0.2,1.7-0.6,2.3c-0.4,0.6-0.9,1.1-1.5,1.5c-0.6,0.4-1.3,0.6-2.1,0.7c-0.8,0.1-1.6,0.2-2.3,0.2h-3.6v7.5H267z M272.3,105.5
		c0.8,0,1.4,0,2-0.1c0.6-0.1,1.1-0.3,1.5-0.5s0.7-0.6,1-1.1c0.2-0.4,0.3-1,0.3-1.8c0-1.1-0.4-1.9-1.1-2.4c-0.7-0.6-1.8-0.8-3.3-0.8
		h-4.2v6.7H272.3z"/>
	<path fill="#182642" d="M282.2,108.6c0,0.7,0.1,1.3,0.3,1.9c0.2,0.6,0.4,1.1,0.8,1.5c0.3,0.4,0.8,0.8,1.3,1
		c0.5,0.3,1.1,0.4,1.8,0.4c0.9,0,1.7-0.2,2.4-0.7c0.7-0.5,1.1-1.2,1.3-2.1h1.6c-0.2,0.6-0.4,1.1-0.7,1.6c-0.3,0.5-0.6,0.9-1.1,1.3
		c-0.4,0.4-0.9,0.7-1.5,0.9s-1.3,0.3-2,0.3c-1,0-1.8-0.2-2.5-0.5s-1.3-0.8-1.7-1.4c-0.5-0.6-0.8-1.3-1-2c-0.2-0.8-0.3-1.6-0.3-2.5
		c0-0.9,0.1-1.7,0.4-2.5c0.3-0.8,0.6-1.5,1.1-2.1c0.5-0.6,1.1-1.1,1.8-1.4c0.7-0.3,1.5-0.5,2.4-0.5c1.7,0,3,0.6,4,1.7s1.4,2.8,1.4,5
		H282.2z M290.2,107.4c0-0.6-0.1-1.2-0.2-1.7c-0.2-0.5-0.4-1-0.7-1.4c-0.3-0.4-0.7-0.7-1.2-0.9c-0.5-0.2-1-0.3-1.7-0.3
		s-1.2,0.1-1.7,0.4c-0.5,0.2-0.9,0.6-1.2,0.9c-0.3,0.4-0.6,0.8-0.8,1.4c-0.2,0.5-0.3,1.1-0.4,1.7H290.2z"/>
	<path fill="#182642" d="M299.3,114.7c-0.8,0-1.5-0.2-2.2-0.4c-0.7-0.3-1.3-0.7-1.8-1.2c-0.5-0.5-0.9-1.2-1.2-2
		c-0.3-0.8-0.4-1.7-0.4-2.8c0-0.9,0.1-1.7,0.4-2.5c0.2-0.8,0.6-1.5,1.1-2c0.5-0.6,1.1-1,1.8-1.4c0.7-0.3,1.5-0.5,2.5-0.5
		c1,0,1.8,0.2,2.5,0.5c0.7,0.3,1.3,0.8,1.8,1.4c0.5,0.6,0.8,1.3,1.1,2c0.2,0.8,0.3,1.6,0.3,2.5c0,1-0.1,1.9-0.4,2.6
		c-0.3,0.8-0.6,1.5-1.1,2c-0.5,0.6-1.1,1-1.8,1.3C300.9,114.5,300.2,114.7,299.3,114.7z M303.5,108.2c0-0.7-0.1-1.4-0.2-2
		c-0.2-0.6-0.4-1.2-0.7-1.6c-0.3-0.5-0.8-0.8-1.3-1.1c-0.5-0.3-1.2-0.4-1.9-0.4c-0.7,0-1.4,0.1-1.9,0.4c-0.5,0.3-1,0.7-1.3,1.2
		c-0.3,0.5-0.6,1-0.7,1.7c-0.2,0.6-0.2,1.3-0.2,1.9c0,0.8,0.1,1.5,0.3,2.1c0.2,0.6,0.4,1.2,0.8,1.6c0.3,0.5,0.8,0.8,1.3,1.1
		c0.5,0.3,1.1,0.4,1.8,0.4c0.7,0,1.4-0.1,1.9-0.4c0.5-0.3,1-0.7,1.3-1.2c0.3-0.5,0.6-1,0.7-1.7C303.4,109.5,303.5,108.9,303.5,108.2
		z"/>
	<path fill="#182642" d="M309.1,119.2h-1.4v-17h1.4v2.1h0c0.2-0.4,0.5-0.7,0.8-1.1c0.3-0.3,0.7-0.6,1.1-0.8c0.4-0.2,0.8-0.4,1.2-0.5
		s0.8-0.2,1.2-0.2c1,0,1.8,0.2,2.5,0.5s1.3,0.8,1.7,1.4s0.8,1.3,1,2c0.2,0.8,0.3,1.6,0.3,2.5c0,0.8-0.1,1.7-0.3,2.5
		c-0.2,0.8-0.6,1.5-1,2.1c-0.4,0.6-1,1.1-1.7,1.4c-0.7,0.4-1.5,0.5-2.4,0.5c-0.9,0-1.7-0.2-2.5-0.6c-0.8-0.4-1.4-1-1.9-1.7V119.2z
		 M309.1,108.3c0,0.7,0.1,1.3,0.3,2c0.2,0.6,0.5,1.2,0.8,1.6c0.4,0.5,0.8,0.8,1.3,1.1c0.5,0.3,1.1,0.4,1.7,0.4
		c0.7,0,1.4-0.1,1.9-0.4c0.5-0.3,1-0.7,1.3-1.2c0.3-0.5,0.6-1.1,0.8-1.8c0.2-0.7,0.2-1.4,0.2-2.2c0-0.8-0.1-1.5-0.3-2
		c-0.2-0.6-0.5-1.1-0.9-1.5c-0.4-0.4-0.8-0.7-1.3-0.9c-0.5-0.2-1.1-0.3-1.7-0.3c-0.7,0-1.3,0.1-1.8,0.4c-0.5,0.3-1,0.6-1.3,1.1
		c-0.3,0.5-0.6,1-0.8,1.7C309.2,106.9,309.1,107.5,309.1,108.3z"/>
	<path fill="#182642" d="M322.2,114.4v-17h1.4v17H322.2z"/>
	<path fill="#182642" d="M328.1,108.6c0,0.7,0.1,1.3,0.3,1.9c0.2,0.6,0.4,1.1,0.8,1.5c0.3,0.4,0.8,0.8,1.3,1
		c0.5,0.3,1.1,0.4,1.8,0.4c0.9,0,1.7-0.2,2.4-0.7c0.7-0.5,1.1-1.2,1.3-2.1h1.6c-0.2,0.6-0.4,1.1-0.7,1.6c-0.3,0.5-0.6,0.9-1.1,1.3
		c-0.4,0.4-0.9,0.7-1.5,0.9s-1.3,0.3-2,0.3c-1,0-1.8-0.2-2.5-0.5c-0.7-0.3-1.3-0.8-1.7-1.4c-0.5-0.6-0.8-1.3-1-2
		c-0.2-0.8-0.3-1.6-0.3-2.5c0-0.9,0.1-1.7,0.4-2.5c0.3-0.8,0.6-1.5,1.1-2.1c0.5-0.6,1.1-1.1,1.8-1.4c0.7-0.3,1.5-0.5,2.4-0.5
		c1.7,0,3,0.6,4,1.7s1.4,2.8,1.4,5H328.1z M336.1,107.4c0-0.6-0.1-1.2-0.2-1.7c-0.2-0.5-0.4-1-0.7-1.4c-0.3-0.4-0.7-0.7-1.2-0.9
		c-0.5-0.2-1-0.3-1.7-0.3s-1.2,0.1-1.7,0.4c-0.5,0.2-0.9,0.6-1.2,0.9c-0.3,0.4-0.6,0.8-0.8,1.4c-0.2,0.5-0.3,1.1-0.4,1.7H336.1z"/>
	<path fill="#182642" d="M352.5,107.2c0.3,0,0.6-0.1,1-0.1c0.4-0.1,0.7-0.1,0.9-0.3c0.2-0.1,0.4-0.3,0.4-0.6
		c0.1-0.3,0.1-0.5,0.1-0.7c0-0.7-0.2-1.3-0.7-1.8c-0.5-0.5-1.2-0.7-2.3-0.7c-0.5,0-0.9,0-1.3,0.1c-0.4,0.1-0.8,0.2-1.1,0.4
		c-0.3,0.2-0.6,0.5-0.8,0.8c-0.2,0.4-0.3,0.8-0.4,1.3h-1.4c0-0.7,0.2-1.3,0.5-1.9c0.3-0.5,0.6-0.9,1.1-1.3s1-0.6,1.6-0.7
		s1.2-0.2,1.9-0.2c0.6,0,1.2,0.1,1.7,0.2s1,0.3,1.4,0.6c0.4,0.3,0.7,0.7,0.9,1.2c0.2,0.5,0.3,1.1,0.3,1.8v6.7c0,0.6,0.1,0.9,0.3,1.1
		c0.2,0.1,0.6,0.1,1.2-0.1v1.1c-0.1,0-0.3,0.1-0.5,0.1c-0.2,0.1-0.4,0.1-0.6,0.1c-0.2,0-0.4,0-0.6-0.1c-0.2,0-0.4-0.1-0.6-0.2
		s-0.3-0.3-0.3-0.4c-0.1-0.2-0.1-0.3-0.2-0.5c0-0.2,0-0.4,0-0.6c-0.6,0.7-1.3,1.2-2.1,1.5c-0.8,0.3-1.6,0.5-2.5,0.5
		c-0.5,0-1-0.1-1.5-0.2c-0.5-0.1-0.9-0.4-1.3-0.7c-0.4-0.3-0.7-0.7-0.9-1.1c-0.2-0.4-0.3-0.9-0.3-1.5c0-2.1,1.4-3.3,4.3-3.7
		L352.5,107.2z M354.9,107.9c-0.6,0.3-1.2,0.4-1.8,0.5c-0.6,0.1-1.2,0.1-1.8,0.2c-1.1,0.1-1.9,0.3-2.5,0.7c-0.6,0.4-0.9,1-0.9,1.9
		c0,0.4,0.1,0.7,0.2,1s0.3,0.5,0.6,0.7s0.5,0.3,0.8,0.4c0.3,0.1,0.6,0.1,1,0.1c0.6,0,1.1-0.1,1.7-0.2c0.5-0.1,1-0.4,1.4-0.6
		c0.4-0.3,0.8-0.7,1-1.1c0.3-0.4,0.4-1,0.4-1.6V107.9z"/>
	<path fill="#182642" d="M361.4,114.4H360v-12.2h1.4v1.7c0.6-0.6,1.2-1.1,1.8-1.5c0.6-0.4,1.3-0.6,2.2-0.6c0.8,0,1.5,0.1,2.1,0.4
		c0.6,0.3,1.2,0.7,1.6,1.4c0.3,0.4,0.5,0.9,0.5,1.4c0.1,0.5,0.1,0.9,0.1,1.5v8h-1.4v-8c0-1.1-0.2-1.9-0.7-2.5
		c-0.5-0.5-1.3-0.8-2.4-0.8c-0.4,0-0.8,0.1-1.2,0.2c-0.4,0.1-0.7,0.3-1,0.5c-0.3,0.2-0.5,0.5-0.7,0.8c-0.2,0.3-0.4,0.6-0.5,0.9
		c-0.1,0.4-0.2,0.8-0.3,1.1c0,0.4,0,0.8,0,1.2V114.4z"/>
	<path fill="#182642" d="M382.6,97.4h1.4v17h-1.4v-2.1h0c-0.2,0.4-0.5,0.8-0.8,1.1c-0.3,0.3-0.7,0.6-1.1,0.8s-0.8,0.4-1.2,0.5
		s-0.8,0.2-1.2,0.2c-1,0-1.8-0.2-2.5-0.5s-1.3-0.8-1.7-1.4c-0.4-0.6-0.8-1.3-1-2c-0.2-0.8-0.3-1.6-0.3-2.5c0-0.8,0.1-1.7,0.3-2.5
		c0.2-0.8,0.6-1.5,1-2.1s1-1.1,1.7-1.4c0.7-0.4,1.5-0.5,2.4-0.5c0.9,0,1.7,0.2,2.5,0.6c0.8,0.4,1.4,1,1.9,1.7V97.4z M382.6,108.2
		c0-0.7-0.1-1.3-0.3-2c-0.2-0.6-0.5-1.2-0.8-1.6c-0.4-0.5-0.8-0.8-1.3-1.1c-0.5-0.3-1.1-0.4-1.7-0.4c-0.7,0-1.4,0.1-1.9,0.4
		c-0.5,0.3-1,0.7-1.3,1.2c-0.3,0.5-0.6,1.1-0.8,1.8c-0.2,0.7-0.2,1.4-0.2,2.2c0,0.8,0.1,1.5,0.3,2c0.2,0.6,0.5,1.1,0.9,1.5
		c0.4,0.4,0.8,0.7,1.3,0.9c0.5,0.2,1.1,0.3,1.7,0.3c0.7,0,1.3-0.1,1.8-0.4s1-0.6,1.3-1.1c0.3-0.5,0.6-1,0.8-1.7
		C382.5,109.6,382.6,108.9,382.6,108.2z"/>
	<path fill="#182642" d="M394.5,109c0,0.5,0,1.1,0.1,1.6c0,0.5,0.2,1,0.4,1.4c0.2,0.4,0.5,0.8,0.9,1c0.4,0.3,1,0.4,1.7,0.4
		c1.1,0,1.9-0.3,2.3-0.9c0.4-0.6,0.7-1.5,0.7-2.7V97.4h1.6v12.3c0,1.7-0.4,2.9-1.2,3.8c-0.8,0.9-2,1.3-3.6,1.3c-1,0-1.7-0.2-2.3-0.5
		s-1-0.8-1.4-1.3c-0.3-0.5-0.5-1.2-0.6-1.9c-0.1-0.7-0.2-1.4-0.2-2.2H394.5z"/>
	<path fill="#182642" d="M410.8,114.7c-0.8,0-1.5-0.2-2.2-0.4c-0.7-0.3-1.3-0.7-1.8-1.2c-0.5-0.5-0.9-1.2-1.2-2
		c-0.3-0.8-0.4-1.7-0.4-2.8c0-0.9,0.1-1.7,0.4-2.5c0.2-0.8,0.6-1.5,1.1-2c0.5-0.6,1.1-1,1.8-1.4c0.7-0.3,1.5-0.5,2.5-0.5
		c1,0,1.8,0.2,2.5,0.5c0.7,0.3,1.3,0.8,1.8,1.4c0.5,0.6,0.8,1.3,1.1,2c0.2,0.8,0.3,1.6,0.3,2.5c0,1-0.1,1.9-0.4,2.6
		c-0.3,0.8-0.6,1.5-1.1,2c-0.5,0.6-1.1,1-1.8,1.3C412.4,114.5,411.6,114.7,410.8,114.7z M414.9,108.2c0-0.7-0.1-1.4-0.2-2
		c-0.2-0.6-0.4-1.2-0.7-1.6c-0.3-0.5-0.8-0.8-1.3-1.1c-0.5-0.3-1.2-0.4-1.9-0.4c-0.7,0-1.4,0.1-1.9,0.4c-0.5,0.3-1,0.7-1.3,1.2
		c-0.3,0.5-0.6,1-0.7,1.7c-0.2,0.6-0.2,1.3-0.2,1.9c0,0.8,0.1,1.5,0.3,2.1c0.2,0.6,0.4,1.2,0.8,1.6c0.3,0.5,0.8,0.8,1.3,1.1
		c0.5,0.3,1.1,0.4,1.8,0.4c0.7,0,1.4-0.1,1.9-0.4c0.5-0.3,1-0.7,1.3-1.2c0.3-0.5,0.6-1,0.7-1.7C414.9,109.5,414.9,108.9,414.9,108.2
		z"/>
	<path fill="#182642" d="M420.6,114.4h-1.4v-17h1.4v6.7c0.5-0.8,1.1-1.3,1.9-1.7c0.8-0.4,1.6-0.6,2.5-0.6c0.9,0,1.7,0.2,2.4,0.5
		c0.7,0.4,1.3,0.8,1.7,1.4s0.8,1.3,1,2.1c0.2,0.8,0.3,1.6,0.3,2.5c0,0.9-0.1,1.7-0.3,2.5s-0.5,1.5-1,2c-0.4,0.6-1,1-1.7,1.4
		s-1.5,0.5-2.5,0.5c-0.4,0-0.8-0.1-1.2-0.2s-0.8-0.3-1.2-0.5c-0.4-0.2-0.7-0.5-1.1-0.8c-0.3-0.3-0.6-0.7-0.8-1.1h0V114.4z
		 M420.6,108.2c0,0.7,0.1,1.4,0.3,2.1c0.2,0.6,0.4,1.2,0.8,1.7c0.3,0.5,0.8,0.8,1.3,1.1c0.5,0.3,1.1,0.4,1.8,0.4
		c0.6,0,1.1-0.1,1.7-0.3c0.5-0.2,0.9-0.5,1.3-0.9c0.4-0.4,0.7-0.9,0.9-1.5c0.2-0.6,0.3-1.3,0.3-2c0-0.8,0-1.5-0.2-2.2
		c-0.2-0.7-0.4-1.3-0.8-1.8c-0.3-0.5-0.8-0.9-1.3-1.2c-0.5-0.3-1.2-0.4-1.9-0.4c-0.6,0-1.2,0.1-1.7,0.4c-0.5,0.3-0.9,0.6-1.3,1.1
		c-0.4,0.5-0.6,1-0.8,1.6C420.7,106.8,420.6,107.5,420.6,108.2z"/>
	<path fill="#182642" d="M434.3,110.5c0.2,1.1,0.6,1.8,1.2,2.2s1.4,0.6,2.5,0.6c0.5,0,1-0.1,1.3-0.2s0.7-0.3,0.9-0.5
		c0.2-0.2,0.4-0.5,0.6-0.7c0.1-0.3,0.2-0.5,0.2-0.8c0-0.6-0.2-1-0.6-1.3c-0.4-0.3-0.9-0.5-1.5-0.7c-0.6-0.2-1.2-0.3-1.9-0.4
		s-1.3-0.3-1.9-0.5c-0.6-0.2-1.1-0.6-1.5-1c-0.4-0.4-0.6-1.1-0.6-1.9c0-1,0.4-1.9,1.1-2.5c0.7-0.7,1.8-1,3.2-1
		c1.3,0,2.4,0.3,3.2,0.9c0.8,0.6,1.3,1.6,1.5,3h-1.4c-0.1-0.9-0.5-1.6-1.1-2c-0.6-0.4-1.3-0.6-2.2-0.6c-0.9,0-1.6,0.2-2.1,0.6
		c-0.5,0.4-0.7,0.9-0.7,1.5c0,0.6,0.2,1,0.6,1.3s0.9,0.5,1.5,0.7c0.6,0.2,1.2,0.3,1.9,0.5c0.7,0.1,1.3,0.3,1.9,0.6s1.1,0.6,1.5,1
		s0.6,1.1,0.6,1.8c0,0.6-0.1,1.1-0.4,1.5c-0.3,0.4-0.6,0.8-1,1.1c-0.4,0.3-1,0.5-1.6,0.7c-0.6,0.1-1.3,0.2-2,0.2s-1.4-0.1-1.9-0.3
		c-0.6-0.2-1-0.5-1.4-0.9c-0.4-0.4-0.7-0.8-0.9-1.3c-0.2-0.5-0.3-1-0.4-1.6H434.3z"/>
</g>
</svg>
